# xmcd
#
# Track frame offsets:
#	150
#	10544
#	23975
#	36116
#	48975
#	60750
#	78114
#	90410
#	103539
#	117486
#	130963
#	144164
#	156298
#	170246
#	180725
#	192298
#	203742
#	214244
#	228494
#	241977
#	256284
#	266740
#	285724
#	301039
#	316844
#
# Disc length: 4404
#
# Revision: 4
# Processed by: cddbd v1.5.1PL0 Copyright (c) Steve Scherf et al.
# Submitted via: ExactAudioCopy v0.95a5
# Normalized: r3:DSETVAR1,TSWAP
#
DISCID=4d113219
DTITLE=Various Artist - Simply The Best Platinum Soul (Disk 1)
DYEAR=2003
DGENRE=Soul
TTITLE0=Aretha Franklin - Think
TTITLE1=Ben E. King - Stand By Me
TTITLE2=Otis Redding - (Sittin' On) The Dock Of The Bay
TTITLE3=Percy Sledge - When A Man Loves A Woman
TTITLE4=Sam and Dave - Soul Man
TTITLE5=Charles Wright and The Watts 103rd Street Rhythm Band - Express Yourself
TTITLE6=Solomon Burke - Everybody Needs Somebody To Love
TTITLE7=Freda Payne - Band Of Gold
TTITLE8=Wilson Pickett - Mustang Sally
TTITLE9=Otis Reding and Carla Thomas - Tramp
TTITLE10=King Curtis - Memphis Soul Stew
TTITLE11=Drifters - Under The Boardwalk
TTITLE12=Beginning Of The End - Funky Nassau
TTITLE13=Arthur Conley - Sweet Soul Music
TTITLE14=Wilson Pickett - In The Midnight Hour
TTITLE15=Rufus Thomas - Walking The Dog
TTITLE16=The Bar-Kays - Soul Finger
TTITLE17=The Spinners - I'll Be Around
TTITLE18=Don Covay - Seesaw
TTITLE19=Ray Charles - What'd I Say (Part 1)
TTITLE20=The Coasters - Charlie Brown
TTITLE21=The Spinners - Could It Be I'm Falling In Love
TTITLE22=The Persuaders - Thin Line Between Love And Hate
TTITLE23=Lorraine Ellison - Stay With Me
TTITLE24=The Chi-Lites - Are You My Woman? (Tell Me So)
EXTD=
EXTT0=
EXTT1=
EXTT2=
EXTT3=
EXTT4=
EXTT5=
EXTT6=
EXTT7=
EXTT8=
EXTT9=
EXTT10=
EXTT11=
EXTT12=
EXTT13=
EXTT14=
EXTT15=
EXTT16=
EXTT17=
EXTT18=
EXTT19=
EXTT20=
EXTT21=
EXTT22=
EXTT23=
EXTT24=
PLAYORDER=
